<?xml version="1.0" encoding="UTF-8"?>
<svg id="Layer_1" data-name="Layer 1" xmlns="http://www.w3.org/2000/svg" viewBox="0 0 240.99 98.5">
  <g>
    <path d="M17.15,82.34c-1.43-1.09-3.5-1.6-5.92-1.6s-4.56.58-5.92,1.6c-1.46,1.09-2.17,2.79-2.17,5.01,0,2.41.81,4.21,2.08,5.23,1.27,1.03,3.57,1.64,6.01,1.64,2.64,0,4.71-.61,5.89-1.51,1.49-1.16,2.2-3.05,2.2-5.24,0-2.34-.71-4.08-2.17-5.14M11.23,98.5c-6.57,0-11.23-3.95-11.23-11.02s4.68-11.01,11.23-11.01,11.23,4.01,11.23,11.01-4,11.02-11.23,11.02"/>
    <path d="M10.42,49c0-2.7-.31-5.27-3.41-5.27-3.35,0-3.5,2.57-3.5,5.23v4.01h6.92v-3.98ZM21.99,39.05l.09.03v4.34c-1.12.71-2.11.9-4.96.9-2.6,0-3.6,1.25-3.6,4.4v4.27h8.56v4.02H.37v-8.25c0-4.46.78-8.96,6.48-8.96,2.67,0,4.53,1.45,5.33,3.53.81-2.15,2.36-2.99,4.68-2.99s3.75-.23,5.12-1.28"/>
  </g>
  <g>
    <rect x="35.02" width="4.01" height="21.71"/>
    <path d="M114.03,15.32v-1.8h4.02v1.49c0,2.23.45,3.94,2.92,3.94,2.25,0,2.7-1.49,2.7-3.35V0h4.01v16.03c0,2.91-1.54,6.05-6.74,6.05-4.53,0-6.9-2.42-6.9-6.76"/>
    <rect x="202.68" width="4.01" height="21.71"/>
  </g>
  <g>
    <path d="M218.06,39.05h21.71v4.53l-11.35,6.68c-1.58.9-3.75,2.12-5.61,2.95v.03c1.95-.1,4.84-.16,5.95-.16h11.01v3.82h-21.71v-4.59l11.57-6.78c1.12-.67,3.5-2.02,5.3-2.79v-.03c-2.23.1-5.18.16-5.8.16h-11.07v-3.82Z"/>
    <path d="M226.04,78.07l.43,4.14c-3.19,0-4.81,2.28-4.81,5.4,0,2.86.87,5.17,3.41,5.17s2.48-3.02,3.19-6.39c.87-4.08,2.29-7.71,6.45-7.71,4.62,0,6.26,4.37,6.26,8.41,0,4.78-1.8,8.54-6.92,9.06l-.68-4.08c3.01-.13,4.5-1.96,4.5-5.01,0-2.28-.93-4.3-2.98-4.3s-2.61,2.5-3.1,5.62c-.74,4.72-1.92,8.51-6.57,8.51-5.24,0-6.7-4.66-6.7-9.31,0-5.04,2.36-9.44,7.5-9.51"/>
  </g>
</svg>